# AST/ASF file generated using VICON BodyLanguage
# -----------------------------------------------
:version 1.10
:name VICON
:units
  mass 1.0
  length 0.45
  angle deg
:documentation
   .ast/.asf automatically generated from VICON data using
   VICON BodyBuilder and BodyLanguage model FoxedUp or BRILLIANT.MOD
:root
   order TX TY TZ RX RY RZ
   axis XYZ
   position 0 0 0  
   orientation 0 0 0 
:bonedata
  begin
     id 1 
     name lhipjoint
     direction 0.57768 -0.667037 0.470475 
     length 2.36008 
     axis 0 0 0  XYZ
  end
  begin
     id 2 
     name lfemur
     direction 0.34202 -0.939693 0  
     length 6.97235  
     axis 0 0 20  XYZ
    dof rx ry rz
    limits (-160.0 20.0)
           (-70.0 70.0)
           (-60.0 70.0)
  end
  begin
     id 3 
     name ltibia
     direction 0.34202 -0.939693 0   
     length 6.93428   
     axis 0 0 20   XYZ
    dof rx
    limits (-10.0 170.0)
  end
  begin
     id 4 
     name lfoot
     direction 0.133018 -0.365463 0.921272   
     length 2.18603   
     axis -90 7.62852e-016 20   XYZ
    dof rx rz
    limits (-45.0 90.0)
           (-70.0 20.0)
  end
  begin
     id 5 
     name ltoes
     direction 1.53519e-011 -4.22055e-011 1   
     length 1.07924   
     axis -90 7.62852e-016 20   XYZ
    dof rx
    limits (-90.0 20.0)
  end
  begin
     id 6 
     name rhipjoint
     direction -0.577712 -0.667019 0.470462   
     length 2.36015  
     axis 0 0 0  XYZ 
  end
  begin
     id 7 
     name rfemur
     direction -0.34202 -0.939693 0   
     length 6.71195   
     axis 0 0 -20   XYZ
    dof rx ry rz
    limits (-160.0 20.0)
           (-70.0 70.0)
           (-70.0 60.0)
  end
  begin
     id 8 
     name rtibia
     direction -0.34202 -0.939693 0   
     length 7.04592   
     axis 0 0 -20   XYZ
    dof rx
    limits (-10.0 170.0)
 end
 begin
     id 9 
     name rfoot
     direction -0.113796 -0.312651 0.943027   
     length 2.03846  
     axis -90 -7.62852e-016 -20   XYZ
    dof rx rz
    limits (-45.0 90.0)
           (-20.0 70.0)
  end
  begin
     id 10 
     name rtoes
     direction -1.53586e-011 -4.218e-011 1   
     length 1.01562   
     axis -90 -7.62852e-016 -20   XYZ
    dof rx
    limits (-90.0 20.0)
  end
  begin
     id 11 
     name lowerback
     direction -0.0417299 0.991937 -0.119667   
     length 2.05257   
     axis 0 0 0   XYZ
    dof rx ry rz
    limits (-20.0 45.0)
           (-30.0 30.0)
           (-30.0 30.0)
  end
  begin
     id 12 
     name upperback
     direction -0.00017666 0.999999 0.00105178   
     length 2.05693   
     axis 0 0 0   XYZ
    dof rx ry rz
    limits (-20.0 45.0)
           (-30.0 30.0)
           (-30.0 30.0)
  end
  begin
     id 13 
     name thorax
     direction 0.0185169 0.998203 0.0569866   
     length 2.0932   
     axis 0 0 0   XYZ
    dof rx ry rz
    limits (-20.0 45.0)
           (-30.0 30.0)
           (-30.0 30.0)
  end
  begin
     id 14 
     name lowerneck
     direction -0.0212406 0.982645 0.184277   
     length 1.72509   
     axis 0 0 0   XYZ
    dof rx ry rz
    limits (-20.0 45.0)
           (-30.0 30.0)
           (-30.0 30.0)
  end
  begin
     id 15 
     name upperneck
     direction 0.00528579 0.965323 -0.261004   
     length 1.76294   
     axis 0 0 0   XYZ
    dof rx ry rz
    limits (-20.0 45.0)
           (-30.0 30.0)
           (-30.0 30.0)
  end
  begin
     id 16
     name head
     direction 0.00695421 0.994078 -0.108445  
     length 1.78678  
     axis 0 0 0   XYZ
    dof rx ry rz
    limits (-20.0 45.0)
           (-30.0 30.0)
           (-30.0 30.0)
  end
  begin
     id 17 
     name lclavicle
     direction 0.97277 0.211305 -0.095232  
     length 3.84823  
     axis 0 0 0   XYZ
    dof ry rz
    limits (-20.0 10.0)
           (0.0 20.0)
  end
  begin
     id 18 
     name lhumerus
     direction 1 -4.48957e-011 -1.98313e-027   
     length 4.97185   
     axis 180 -30 -90   XYZ
    dof rx ry rz
    limits (-60.0 90.0)
           (-90.0 90.0)
           (-90.0 90.0)
  end
  begin
     id 19
     name lradius
     direction 1 -4.4898e-011 7.31063e-027   
     length 3.35811   
     axis 180 -30 -90   XYZ
    dof rx
    limits (-10.0 170.0)
  end
  begin
     id 20
     name lwrist
     direction 1 -4.48938e-011 9.95048e-027   
     length 1.67905   
     axis -8.75986e-015 90 90   XYZ
    dof ry
    limits (-180.0 0.0)
 end
  begin
     id 21 
     name lhand
     direction 1 -4.4901e-011 1.9901e-026   
     length 0.622776   
     axis -1.26985e-014 90 90   XYZ
    dof rx rz
    limits (-90.0 90.0)
           (-45.0 45.0)
  end
  begin
     id 22 
     name lfingers
     direction 1 -4.48961e-011 3.98019e-026   
     length 0.502098   
     axis -2.5397e-014 90 90   XYZ
    dof rx
    limits (0.0 90.0)
  end
  begin
     id 23
     name lthumb
     direction 0.707107 -6.34933e-011 0.707107   
     length 0.720915   
     axis -90 45 2.85299e-015   XYZ
    dof rx rz
    limits (-45.0 45.0)
           (-45.0 45.0)
  end
  begin
     id 24 
     name rclavicle
     direction -0.990867 0.133739 -0.0172226   
     length 3.78845  
     axis 0 0 0   XYZ 
    dof ry rz
    limits (-10.0 20.0)
           (-20.0 0.0)
  end
  begin
     id 25 
     name rhumerus
     direction -1 -4.48972e-011 -1.99267e-027  
     length 4.96493   
     axis 180 30 90   XYZ
    dof rx ry rz
    limits (-90.0 60.0)
           (-90.0 90.0)
           (-90.0 90.0)
  end
  begin
     id 26 
     name rradius
     direction -1 -4.48969e-011 8.96093e-027   
     length 3.34929   
     axis 180 30 90   XYZ
    dof rx
    limits (-10.0 170.0)
  end
  begin
     id 27 
     name rwrist
     direction -1 -4.48953e-011 9.95048e-027   
     length 1.67464   
     axis -8.75986e-015 -90 -90   XYZ
    dof ry
    limits (-180.0 0.0)
  end
  begin
     id 28
     name rhand
     direction -1 -4.49001e-011 1.9901e-026   
     length 0.638041   
     axis -1.26985e-014 -90 -90   XYZ
    dof rx rz
    limits (-90.0 90.0)
           (-45.0 45.0)
  end
  begin
     id 29
     name rfingers
     direction -1 -4.48967e-011 3.98019e-026   
     length 0.514405   
     axis -2.5397e-014 -90 -90   XYZ
    dof rx
    limits (0.0 90.0)
  end
  begin
     id 30
     name rthumb
     direction -0.707107 -6.34904e-011 0.707107   
     length 0.738586   
     axis -90 -45 -2.85299e-015   XYZ
    dof rx rz
    limits (-45.0 45.0)
           (-45.0 45.0)
  end
:hierarchy
  begin
    root lhipjoint rhipjoint lowerback
    lhipjoint lfemur
    lfemur ltibia
    ltibia lfoot
    lfoot ltoes
    rhipjoint rfemur
    rfemur rtibia
    rtibia rfoot
    rfoot rtoes
    lowerback upperback
    upperback thorax
    thorax lowerneck lclavicle rclavicle
    lowerneck upperneck
    upperneck head
    lclavicle lhumerus
    lhumerus lradius
    lradius lwrist
    lwrist lhand lthumb
    lhand lfingers
    rclavicle rhumerus
    rhumerus rradius
    rradius rwrist
    rwrist rhand rthumb
    rhand rfingers
  end

#!OML:ASF E:\Mandelcareful walks\Project 1\Capture day 1\Session 1\Subject1.ASF
:FULLY-SPECIFIED
:DEGREES
87
root -30.6884 16.2656 2.31963 -189.441 78.7162 -195.651
lowerback -4.31631 0.530191 -3.54343
upperback 1.55828 0.869638 1.34171
thorax 3.96138 0.326474 3.44619
lowerneck -17.2239 3.23172 -2.01787
upperneck 31.9193 7.44702 -2.67873
head 13.7665 2.98384 0.615497
rclavicle -1.59028e-015 -1.19271e-014
rhumerus -32.6123 2.42326 -85.3717
rradius 37.1858
rwrist -15.1917
rhand -7.83285 -29.9685
rfingers 7.12502
rthumb 18.0697 -59.1491
lclavicle -1.59028e-015 -1.19271e-014
lhumerus -25.6658 3.62291 89.9003
lradius 23.7479
lwrist 8.40183
lhand -21.0984 -12.2103
lfingers 7.12502
lthumb 5.27932 17.7039
rfemur -11.2071 -2.23378 11.8583
rtibia 29.9353
rfoot -25.4993 -21.0458
rtoes -0.466074
lfemur -13.5842 -5.14157 -20.122
ltibia 31.4862
lfoot -24.5093 18.6984
ltoes 1.12504
88
root -30.6911 16.2686 2.32835 -189.902 79.2598 -196.139
lowerback -3.99947 0.547195 -3.58404
upperback 1.73917 0.88463 1.41846
thorax 3.96736 0.32959 3.54688
lowerneck -17.5023 3.02202 -2.47779
upperneck 31.8362 7.21065 -2.52431
head 13.7644 2.8342 0.718557
rclavicle -3.77691e-015 0
rhumerus -32.2906 2.60101 -85.257
rradius 37.3778
rwrist -15.4278
rhand -7.57991 -30.0006
rfingers 7.12502
rthumb 18.313 -59.1586
lclavicle -3.77691e-015 0
lhumerus -25.7012 3.82002 89.9502
lradius 23.9847
lwrist 8.6294
lhand -20.4969 -12.367
lfingers 7.12502
lthumb 5.86008 17.5319
rfemur -11.3982 -2.26995 11.8842
rtibia 29.9285
rfoot -25.2271 -20.6305
rtoes -0.964071
lfemur -13.5589 -4.97194 -20.0636
ltibia 31.5033
lfoot -24.7228 18.9389
ltoes 1.30299
89
root -30.6934 16.2706 2.3415 -190.098 79.7957 -196.404
lowerback -3.75307 0.572718 -3.65457
upperback 1.93361 0.914616 1.52146
thorax 4.02525 0.337692 3.69427
lowerneck -17.938 2.8887 -2.66004
upperneck 31.9578 7.09273 -2.53119
head 13.9074 2.7406 0.73886
rclavicle 6.06293e-015 -3.18055e-014
rhumerus -31.9965 2.72435 -85.044
rradius 37.6591
rwrist -15.8323
rhand -7.04173 -30.0889
rfingers 7.12502
rthumb 18.8307 -59.1974
lclavicle 6.06293e-015 -3.18055e-014
lhumerus -25.7588 3.65422 90.0986
lradius 24.2218
lwrist 8.81237
lhand -20.3099 -12.2309
lfingers 7.12502
lthumb 6.04065 17.663
rfemur -11.6739 -2.11777 12.0319
rtibia 29.908
rfoot -24.8049 -20.6367
rtoes -1.98923
lfemur -13.6258 -4.71687 -19.9375
ltibia 31.4969
lfoot -24.6601 19.2798
ltoes 0.510895
90
root -30.6803 16.2643 2.36539 -189.819 79.8658 -196.04
lowerback -3.30307 0.446666 -3.59656
upperback 2.03884 0.732879 1.45637
thorax 3.89741 0.251627 3.57551
lowerneck -18.3367 2.87428 -2.33472
upperneck 32.2297 7.09339 -2.78329
head 14.1418 2.72582 0.597598
rclavicle -1.2921e-014 -2.22639e-014
rhumerus -32.1043 2.82437 -85.2
rradius 37.9583
rwrist -16.111
rhand -6.80702 -29.8776
rfingers 7.12502
rthumb 19.0564 -58.964
lclavicle -1.2921e-014 -2.22639e-014
lhumerus -26.057 3.13017 89.9874
lradius 24.3811
lwrist 9.06171
lhand -20.348 -11.9111
lfingers 7.12502
lthumb 6.00381 17.9839
rfemur -11.5223 -1.65708 12.2894
rtibia 29.8923
rfoot -24.9982 -21.1486
rtoes -2.30435
lfemur -13.5053 -4.65379 -19.7155
ltibia 31.519
lfoot -24.7222 19.2039
ltoes 0.279574
91
root -30.6898 16.2759 2.36893 -191.011 81.0641 -197.721
lowerback -3.1643 0.597276 -3.45355
upperback 1.91376 0.919611 1.48627
thorax 3.67349 0.354679 3.53355
lowerneck -18.362 2.98351 -2.22784
upperneck 32.2446 7.386 -3.22951
head 14.188 2.80132 0.453227
rclavicle -8.34896e-015 2.94201e-014
rhumerus -32.3687 3.46438 -85.1805
rradius 38.2662
rwrist -16.2919
rhand -6.80762 -29.3351
rfingers 7.12502
rthumb 19.0558 -58.4216
lclavicle -8.34896e-015 2.94201e-014
lhumerus -26.5403 2.84601 90.1562
lradius 24.6752
lwrist 9.46958
lhand -20.4543 -11.679
lfingers 7.12502
lthumb 5.9012 18.2188
rfemur -12.4952 -1.99386 12.1946
rtibia 29.8884
rfoot -24.2282 -20.0584
rtoes -3.44425
lfemur -13.8835 -4.94305 -19.7415
ltibia 31.538
lfoot -25.651 20.2243
ltoes 1.62707
92
root -30.6876 16.2775 2.39037 -191.381 81.3722 -198.126
lowerback -2.67949 0.57886 -3.4364
upperback 2.07514 0.883583 1.4583
thorax 3.57038 0.338362 3.48647
lowerneck -18.7936 3.05306 -2.07301
upperneck 32.2845 7.49217 -3.37762
head 14.3176 2.82567 0.395825
rclavicle 1.92821e-014 1.59028e-015
rhumerus -32.2703 3.4892 -85.1435
rradius 38.4058
rwrist -16.287
rhand -6.97874 -29.3028
rfingers 7.12502
rthumb 18.8913 -58.4055
lclavicle 1.92821e-014 1.59028e-015
lhumerus -26.7821 1.74663 90.3501
lradius 25.1944
lwrist 10.2344
lhand -20.4589 -11.4412
lfingers 7.12502
lthumb 5.89676 18.4567
rfemur -12.6536 -2.0827 12.2813
rtibia 29.9223
rfoot -24.1637 -19.736
rtoes -3.83132
lfemur -13.8693 -4.87615 -19.6263
ltibia 31.5374
lfoot -25.8231 20.3356
ltoes 2.07242
93
root -30.6795 16.2773 2.41685 -190.331 81.2886 -197.005
lowerback -2.08884 0.40679 -3.45425
upperback 1.82663 0.631203 1.50949
thorax 3.00006 0.227355 3.52571
lowerneck -17.6592 3.19183 -1.62575
upperneck 32.0947 7.6263 -3.69153
head 14.0198 2.93904 0.190273
rclavicle 9.44227e-015 1.19271e-014
rhumerus -33.1315 3.63402 -85.1537
rradius 38.5446
rwrist -16.3143
rhand -6.95104 -29.8111
rfingers 7.12502
rthumb 18.9179 -58.9111
lclavicle 9.44227e-015 1.19271e-014
lhumerus -27.9389 1.07708 90.341
lradius 25.6927
lwrist 10.6265
lhand -19.9405 -11.0847
lfingers 7.12502
lthumb 6.39729 18.7987
rfemur -12.5396 -2.22556 12.5736
rtibia 29.9722
rfoot -24.3658 -19.6435
rtoes -3.52089
lfemur -13.802 -4.756 -19.3228
ltibia 31.5351
lfoot -25.6494 20.0761
ltoes 2.14794
94
root -30.6745 16.2786 2.44102 -191.108 81.7939 -198.022
lowerback -1.89094 0.343253 -3.48658
upperback 2.39517 0.55171 1.57271
thorax 3.48383 0.169835 3.60922
lowerneck -19.4334 3.43378 -1.83778
upperneck 32.2234 8.1329 -3.84339
head 14.4816 3.03568 0.296067
rclavicle 3.53837e-014 -7.95139e-016
rhumerus -31.9724 4.06003 -84.9384
rradius 38.3997
rwrist -16.3478
rhand -6.48012 -30.0061
rfingers 7.12502
rthumb 19.3708 -59.0613
lclavicle 3.53837e-014 -7.95139e-016
lhumerus -26.9938 0.938484 90.4286
lradius 25.8392
lwrist 10.8514
lhand -19.4615 -11.7154
lfingers 7.12502
lthumb 6.85964 18.1535
rfemur -12.975 -2.1954 12.5964
rtibia 30.071
rfoot -24.3932 -19.0676
rtoes -2.77587
lfemur -13.9607 -4.67605 -19.254
ltibia 31.5186
lfoot -25.8635 20.3081
ltoes 2.61419
95
root -30.654 16.2652 2.47118 -192.648 81.3903 -199.534
lowerback -1.55302 0.124264 -3.87882
upperback 2.1788 0.259488 1.43829
thorax 3.09456 0.0271745 3.67339
lowerneck -18.0092 3.53823 -1.409
upperneck 31.856 8.16544 -4.09905
head 14.0364 3.12605 0.0887404
rclavicle 2.74323e-014 1.59028e-014
rhumerus -33.0083 3.88499 -84.9084
rradius 38.4999
rwrist -16.1257
rhand -6.28175 -29.8275
rfingers 7.12502
rthumb 19.5615 -58.8634
lclavicle 2.74323e-014 1.59028e-014
lhumerus -28.2069 -0.50353 90.6352
lradius 26.4891
lwrist 11.4843
lhand -19.8531 -11.5626
lfingers 7.12502
lthumb 6.48161 18.3182
rfemur -12.7873 -1.98927 12.3764
rtibia 30.1932
rfoot -24.9935 -19.2874
rtoes -1.91761
lfemur -13.8492 -4.61321 -19.4289
ltibia 31.4784
lfoot -25.6621 19.9536
ltoes 2.63611
